HIERARCHY
ROOT root
{
	OFFSET	0	13.1	24.9
	CHANNELS 6  Xposition Yposition Zposition Xrotation Yrotation Zrotation
	JOINT spine_1
	{
		OFFSET	0	9.99999	0
		CHANNELS 3  Xrotation Yrotation Zrotation
		JOINT spine_2
		{
			OFFSET	0	112	-10
			CHANNELS 3  Xrotation Yrotation Zrotation
			JOINT spine_3
			{
				OFFSET	0	206.5	19.3
				CHANNELS 3  Xrotation Yrotation Zrotation
				JOINT spine_4
				{
					OFFSET	0	110.4	14.6
					CHANNELS 3  Xrotation Yrotation Zrotation
					JOINT neck_1
					{
						OFFSET	0	71.8	-50.3
						CHANNELS 3  Xrotation Yrotation Zrotation
						JOINT neck_2
						{
							OFFSET	0	86.2	-25.8
							CHANNELS 3  Xrotation Yrotation Zrotation
							JOINT head_ee
							{
								OFFSET	0	179.8	-8.7
								CHANNELS 3  Xrotation Yrotation Zrotation
								End Site
								{
									OFFSET	1	0	0
								}
							}
						}
					}
					JOINT left_clavicle
					{
						OFFSET	-43.2	22.4	-70.8
						CHANNELS 3  Xrotation Yrotation Zrotation
						JOINT left_shoulder
						{
							OFFSET	-93.9	-5.79999	48.7
							CHANNELS 3  Xrotation Yrotation Zrotation
							JOINT left_elbow
							{
								OFFSET	-291.4	-30.8	15.2
								CHANNELS 3  Xrotation Yrotation Zrotation
								JOINT left_lowarm_twist
								{
									OFFSET	-110.7	-3.89999	13.6
									CHANNELS 3  Xrotation Yrotation Zrotation
									JOINT left_hand
									{
										OFFSET	-110.7	-3.89999	13.6
										CHANNELS 3  Xrotation Yrotation Zrotation
										JOINT left_ee
										{
											OFFSET	-80.8	-5.10001	12.1
											CHANNELS 3  Xrotation Yrotation Zrotation
											End Site
											{
												OFFSET	1	0	0
											}
										}
									}
								}
							}
						}
					}
					JOINT right_clavicle
					{
						OFFSET	43.2	22.4	-70.8
						CHANNELS 3  Xrotation Yrotation Zrotation
						JOINT right_shoulder
						{
							OFFSET	93.9	-5.79999	48.7
							CHANNELS 3  Xrotation Yrotation Zrotation
							JOINT right_elbow
							{
								OFFSET	291.4	-30.8	15.2
								CHANNELS 3  Xrotation Yrotation Zrotation
								JOINT right_lowarm_twist
								{
									OFFSET	110.7	-3.89999	13.6
									CHANNELS 3  Xrotation Yrotation Zrotation
									JOINT right_hand
									{
										OFFSET	110.7	-3.89999	13.6
										CHANNELS 3  Xrotation Yrotation Zrotation
										JOINT right_ee
										{
											OFFSET	80.8	-5.10001	12.1
											CHANNELS 3  Xrotation Yrotation Zrotation
											End Site
											{
												OFFSET	1	0	0
											}
										}
									}
								}
							}
						}
					}
				}
			}
		}
	}
	JOINT left_hip
	{
		OFFSET	-82.8	-127.5	0.300001
		CHANNELS 3  Xrotation Yrotation Zrotation
		JOINT left_knee
		{
			OFFSET	-28.2	-396.7	2.2
			CHANNELS 3  Xrotation Yrotation Zrotation
			JOINT left_ankle
			{
				OFFSET	-11.7	-411.3	35.4
				CHANNELS 3  Xrotation Yrotation Zrotation
				JOINT left_toes
				{
					OFFSET	0	-60	-88.6
					CHANNELS 3  Xrotation Yrotation Zrotation
					JOINT left_foot_ee
					{
						OFFSET	-22.5	-16.5	-42.2
						CHANNELS 3  Xrotation Yrotation Zrotation
						End Site
						{
							OFFSET	1	0	0
						}
					}
				}
			}
		}
	}
	JOINT right_hip
	{
		OFFSET	82.8	-127.5	0.300001
		CHANNELS 3  Xrotation Yrotation Zrotation
		JOINT right_knee
		{
			OFFSET	28.2	-396.7	2.2
			CHANNELS 3  Xrotation Yrotation Zrotation
			JOINT right_ankle
			{
				OFFSET	11.7	-411.3	35.4
				CHANNELS 3  Xrotation Yrotation Zrotation
				JOINT right_toes
				{
					OFFSET	0	-60	-88.6
					CHANNELS 3  Xrotation Yrotation Zrotation
					JOINT right_foot_ee
					{
						OFFSET	22.5	-16.5	-42.2
						CHANNELS 3  Xrotation Yrotation Zrotation
						End Site
						{
							OFFSET	1	0	0
						}
					}
				}
			}
		}
	}
}
MOTION
Frames: 7
Frame Time: 0.02
3435.39 728.025 -1620.59 4.61126 68.1103 -10.8999 0.237382 0.651785 3.15241 0.242797 0.449973 3.18745 0.270608 -0.214821 3.21185 0.256335 0.29486 3.2055 -2.00823 17.001 -4.28388 -1.18413 34.1158 -2.46723 -0.0 0.0 -0.0 -4.77328 19.4174 -4.85866 -4.07591 -6.58101 70.5953 0.868741 -23.2843 0.178996 22.3628 0.238653 -2.82859 -1.86056 22.4949 -1.80161 -0.0 0.0 -0.0 13.7826 25.8971 -27.5072 11.6753 14.9653 -71.7121 0.278953 7.86778 -0.019183 30.2804 -0.0576043 3.82299 2.27116 2.47824 -14.3573 0.0 0.0 0.0 2.80962 12.5012 2.25547 -36.1507 -0.240211 5.45189 40.9006 9.46233 -4.95074 3.4744 -0.0 -0.0 -0.0 0.0 -0.0 -12.2482 13.8747 1.53768 6.6282 0.329112 0.962964 39.9402 -3.4893 4.85424 -23.5951 0.0 0.0 0.0 0.0 0.0 
3424.72 728.47 -1617.95 3.5596 67.9808 -10.5111 0.330082 0.483328 3.26091 0.335955 0.274962 3.28503 0.354268 -0.401674 3.27196 0.33935 0.119822 3.29432 -2.03102 17.8321 -2.5823 -1.27268 34.313 -0.537096 -0.0 0.0 -0.0 -5.04248 20.093 -5.09327 -7.32047 -5.79243 71.5502 0.682774 -18.6869 0.112342 21.7391 0.247046 -2.74936 -1.50136 20.5042 -0.634086 -0.0 0.0 -0.0 13.9153 26.263 -27.7722 13.4234 15.916 -72.2663 0.362562 10.1821 -0.0323009 28.5099 -0.110002 3.60291 2.18183 0.35943 -14.5974 0.0 0.0 0.0 6.46393 1.88367 2.66138 -30.9443 0.00674033 4.69155 41.0723 12.7946 -4.99714 -1.85743 0.0 0.0 -0.0 0.0 -0.0 -13.764 14.8857 3.20231 4.06354 0.188539 0.594841 41.0993 -2.88511 4.95442 -22.6268 0.0 0.0 0.0 0.0 0.0 
3412.59 720.398 -1615.56 3.46822 66.8166 -10.9029 0.427804 0.762223 3.26903 0.433579 0.552779 3.31084 0.468301 -0.127841 3.35418 0.452829 0.403194 3.33234 -0.964657 17.6062 -3.24815 -0.0309002 34.2445 -1.61692 -0.0 0.0 -0.0 -5.25264 20.1201 -5.4008 -9.91315 -5.29776 71.6161 0.567115 -15.6919 0.0781491 20.716 0.258946 -2.61923 -1.14771 19.675 1.08953 -0.0 0.0 -0.0 14.0903 26.7828 -28.1152 15.1173 16.3335 -72.3668 0.471582 13.1491 -0.0543522 27.5127 -0.13651 3.47829 2.23383 -0.727065 -15.3897 0.0 0.0 0.0 8.93823 -2.6556 3.65945 -30.9135 0.00799314 4.68699 41.758 13.3908 -5.06362 -5.27283 0.0 0.0 -0.0 0.0 -0.0 -14.4113 16.5829 5.08739 4.44219 0.208251 0.649574 40.5601 -2.19933 4.91131 -22.5032 0.0 0.0 0.0 0.0 0.0 
3396.65 720.404 -1617.82 4.25696 65.6275 -11.6221 0.426066 1.15591 3.14061 0.431047 0.953829 3.20771 0.487518 0.287592 3.33401 0.472923 0.81025 3.24691 0.70935 17.4447 -4.12205 1.93472 34.3673 -3.12289 -0.0 0.0 -0.0 -5.65959 20.1832 -5.99415 -12.8177 -4.65991 71.9566 0.506599 -14.0879 0.0625973 19.2485 0.271952 -2.43224 -0.628122 18.1763 3.56588 -0.0 0.0 -0.0 14.1671 26.9446 -28.2737 15.6662 16.3433 -72.2899 0.59631 16.457 -0.0862332 26.6945 -0.156634 3.37572 1.96452 -2.83335 -14.3572 0.0 0.0 0.0 10.4284 -4.46283 5.31128 -30.8811 0.00930944 4.6822 41.4971 13.4091 -5.04154 -9.35558 0.0 0.0 -0.0 0.0 -0.0 -15.5274 19.2467 6.30424 5.00215 0.238067 0.730277 39.2368 -0.679184 4.80505 -21.1189 0.0 0.0 0.0 0.0 0.0 
3389.49 722.208 -1619.42 2.97061 66.9634 -10.4723 0.62507 1.07629 3.0504 0.629816 0.880099 3.11262 0.680163 0.245279 3.22523 0.666436 0.751313 3.14616 1.30547 17.0703 -5.11636 2.67943 34.4059 -4.45448 -0.0 0.0 -0.0 -5.83038 19.5058 -6.44043 -14.6178 -4.60932 72.153 0.497677 -13.8494 0.0604438 17.7156 0.28042 -2.23664 -0.305449 17.5718 5.27797 -0.0 0.0 -0.0 14.2587 27.1899 -28.4554 16.2369 16.305 -72.1363 0.745005 20.2567 -0.133088 26.3938 -0.163664 3.33794 1.68383 -4.152 -12.9527 0.0 0.0 0.0 10.265 -7.02254 5.24479 -27.6858 0.125724 4.2057 34.8865 13.54 -4.42971 -10.522 0.0 0.0 -0.0 0.0 -0.0 -15.8005 19.5021 6.92096 6.89632 0.344759 1.00108 39.0458 -0.499835 4.78944 -20.2162 0.0 0.0 0.0 0.0 0.0 
3380.95 719.471 -1621.49 2.45629 69.0459 -10.0384 0.765199 0.99765 3.11448 0.770242 0.797549 3.17157 0.816693 0.160333 3.26628 0.80244 0.673903 3.2001 1.01143 16.7719 -5.70958 2.37977 34.4013 -5.04815 -0.0 0.0 -0.0 -6.2264 20.0235 -6.89455 -17.4011 -4.55211 72.5267 0.515113 -14.315 0.064686 15.4692 0.283371 -1.94975 0.130788 16.4593 7.51973 -0.0 0.0 -0.0 14.3071 27.4956 -28.5272 16.8727 16.1553 -71.9209 0.907391 24.2034 -0.19456 26.4156 -0.163161 3.34068 1.26576 -6.06007 -10.8737 0.0 0.0 0.0 10.0233 -10.5048 5.11993 -23.1422 0.245107 3.51881 26.495 14.7684 -3.53858 -11.6433 0.0 0.0 -0.0 0.0 -0.0 -16.2449 19.9255 6.90174 6.24624 0.307131 0.908534 40.0252 -0.0861618 4.87749 -18.692 0.0 0.0 0.0 0.0 0.0 
3372.2 718.722 -1623.4 3.05195 69.7359 -10.8686 0.810252 0.87253 3.20057 0.815703 0.667212 3.24953 0.855727 0.0192791 3.3172 0.840783 0.542642 3.27262 -0.231285 16.8013 -5.70223 0.965674 34.6239 -4.63115 -0.0 0.0 -0.0 -6.41072 19.8401 -7.22878 -18.7853 -4.5365 72.5622 0.578928 -16.0022 0.0813751 14.3866 0.280776 -1.8115 0.313041 16.3736 8.61642 -0.0 0.0 -0.0 14.2796 27.9916 -28.3934 17.4308 16.9859 -72.4703 1.16273 29.9402 -0.310912 26.8232 -0.153566 3.39187 1.21176 -6.35198 -10.6259 0.0 0.0 0.0 12.8991 -12.0906 3.93598 -21.105 0.280869 3.20826 18.4165 17.1161 -2.57035 -12.8967 0.0 0.0 -0.0 0.0 -0.0 -16.8022 20.5226 7.06907 4.0191 0.186249 0.588409 40.4448 -0.529235 4.91029 -16.966 0.0 0.0 0.0 0.0 0.0 
